<svg id="Layer_1" data-name="Layer 1" xmlns="http://www.w3.org/2000/svg" viewBox="0 0 141.99 141.99"><defs><style>.cls-1{fill:#fff;}</style></defs><title>bitnation-logo-round</title><path class="cls-1" d="M71,0a71,71,0,1,0,71,71A71.08,71.08,0,0,0,71,0m0,136.8A65.81,65.81,0,1,1,136.8,71,65.88,65.88,0,0,1,71,136.8"/><path class="cls-1" d="M70.33,30.21c-7.69,0-14.47,5.53-14.47,12.36V57.8c0,4.77,3.34,8.92,7.91,11,0,0,0-24.06,0-24.2a6.48,6.48,0,0,1,13,0c0,.12,0,24.25,0,24.25,4.68-2,8.09-6.21,8.09-11V42.57c0-6.83-6.79-12.36-14.47-12.36"/><path class="cls-1" d="M70.23,52.59a4,4,0,0,0-3.93,4c0,.09,0,29.48,0,31.74a3.94,3.94,0,1,0,7.87,0V56.56a4,4,0,0,0-3.93-4"/><path class="cls-1" d="M76.8,76.18s0,24.06,0,24.2a6.49,6.49,0,0,1-13,0c0-.12.08-24.25.08-24.25-4.69,2-8,6.21-8,11v15.22c0,6.84,6.78,12.37,14.47,12.37s14.47-5.53,14.47-12.37V87.16c0-4.77-3.44-8.92-8-11"/></svg>