<svg id="Layer_1" data-name="Layer 1" xmlns="http://www.w3.org/2000/svg" viewBox="0 0 171 192"><defs><style>.cls-1{fill:#fff;}</style></defs><title>bitnation-logo-enter-pangea</title><path class="cls-1" d="M85.5.64a71,71,0,1,0,71,71,71.08,71.08,0,0,0-71-71m0,136.8a65.81,65.81,0,1,1,65.81-65.8,65.89,65.89,0,0,1-65.81,65.8"/><path class="cls-1" d="M84.83,30.85c-7.68,0-14.47,5.53-14.47,12.36V58.44c0,4.77,3.34,8.92,7.91,11,0,0,0-24.06,0-24.2a6.48,6.48,0,0,1,13,0V69.47c4.69-2,8.09-6.21,8.09-11V43.21c0-6.83-6.78-12.36-14.47-12.36"/><path class="cls-1" d="M84.73,53.23a4,4,0,0,0-3.93,4c0,.09,0,29.48,0,31.74a3.94,3.94,0,1,0,7.88,0s0-31.71,0-31.79a4,4,0,0,0-3.93-4"/><path class="cls-1" d="M91.3,76.82s0,24.06,0,24.2a6.49,6.49,0,0,1-13,0c0-.12.09-24.25.09-24.25-4.69,2-8,6.21-8,11V103c0,6.84,6.79,12.37,14.47,12.37S99.3,109.86,99.3,103V87.8c0-4.77-3.43-8.92-8-11"/><path class="cls-1" d="M55.72,174.63a3,3,0,0,0-1.9.68,3,3,0,0,0-1,2h5.47a2.7,2.7,0,0,0-.66-2A2.5,2.5,0,0,0,55.72,174.63Z"/><path class="cls-1" d="M125.06,178.59a2.1,2.1,0,0,0,1.39-3.55,2,2,0,0,0-2.79,0,2.05,2.05,0,0,0,1.4,3.55Z"/><path class="cls-1" d="M92.5,172.17a4.24,4.24,0,0,0-2.28-.49h-2v4.74h2a3.62,3.62,0,0,0,2.3-.6,2.23,2.23,0,0,0,.75-1.87A1.94,1.94,0,0,0,92.5,172.17Z"/><path class="cls-1" d="M137.22,174.63a3,3,0,0,0-1.9.68,3,3,0,0,0-1,2h5.47a2.7,2.7,0,0,0-.66-2A2.5,2.5,0,0,0,137.22,174.63Z"/><path class="cls-1" d="M100.5,178.79a2.11,2.11,0,0,0-.79.63,1.42,1.42,0,0,0-.23.78,1.09,1.09,0,0,0,.55,1,2.75,2.75,0,0,0,1.33.31,3.58,3.58,0,0,0,1.49-.33,6.83,6.83,0,0,0,1.46-.93V178a18.41,18.41,0,0,0-2.33.3A5.64,5.64,0,0,0,100.5,178.79Z"/><path class="cls-1" d="M128.07,183.25a4.54,4.54,0,0,0-1.54-.2h-1.67c-.3,0-.56,0-.79,0a3.23,3.23,0,0,1-.66-.12,2.33,2.33,0,0,0-.82.68,1.31,1.31,0,0,0-.23.73,1.25,1.25,0,0,0,.74,1.1,4.51,4.51,0,0,0,2.17.42,5.81,5.81,0,0,0,1.37-.15,4.34,4.34,0,0,0,1-.39,1.89,1.89,0,0,0,.67-.55,1.07,1.07,0,0,0,.24-.66A.81.81,0,0,0,128.07,183.25Z"/><path class="cls-1" d="M0,163v28H171V163Zm12.62,9.61L7,176.36v.07l5.66,3.75V182l-7.31-4.89V175.7l7.31-4.89ZM25,182.84H16.78V170.13h8v1.63h-6v3.63h5.1V177h-5.1v4.19H25Zm11.56,0H34.59v-5.63a3,3,0,0,0-.45-1.83,1.77,1.77,0,0,0-1.53-.6,2.53,2.53,0,0,0-1.36.38,8.15,8.15,0,0,0-1.34,1.14v6.54H28v-9.49h1.57l.16,1.53h.08a8,8,0,0,1,1.55-1.25,3.65,3.65,0,0,1,1.94-.51,2.93,2.93,0,0,1,2.45,1,4.58,4.58,0,0,1,.77,2.85Zm10.62.07a7.66,7.66,0,0,1-1.59.16,4.88,4.88,0,0,1-1.78-.29A2.78,2.78,0,0,1,42.6,182a3,3,0,0,1-.64-1.25,6.21,6.21,0,0,1-.19-1.62V174.9h-2.6v-1.45l2.68-.1.25-2.62h1.59v2.62h4.48v1.55H43.69v4.19a2.83,2.83,0,0,0,.5,1.83,2.21,2.21,0,0,0,1.79.6,6,6,0,0,0,1.16-.11,5.61,5.61,0,0,0,1-.3l.39,1.42A13.56,13.56,0,0,1,47.13,182.91ZM60,178.15a3.4,3.4,0,0,1-.07.44H52.81a3,3,0,0,0,1,2.18,3.56,3.56,0,0,0,2.38.79,4.48,4.48,0,0,0,1.44-.22,5.71,5.71,0,0,0,1.31-.6l.68,1.22a7.73,7.73,0,0,1-1.66.79,6.22,6.22,0,0,1-2,.32,5.72,5.72,0,0,1-2-.34,4.75,4.75,0,0,1-1.64-1,4.6,4.6,0,0,1-1.1-1.56,5.57,5.57,0,0,1,0-4.17,4.65,4.65,0,0,1,1.09-1.57,4.46,4.46,0,0,1,1.55-1,4.84,4.84,0,0,1,1.8-.34,4.9,4.9,0,0,1,1.86.33,3.81,3.81,0,0,1,1.36.92,3.88,3.88,0,0,1,.86,1.41,5.56,5.56,0,0,1,.29,1.82A4.8,4.8,0,0,1,60,178.15Zm11.25-3c-.33-.1-.61-.18-.84-.23a4.3,4.3,0,0,0-.89-.08,3.71,3.71,0,0,0-2,.59,5.3,5.3,0,0,0-1.75,2v5.4H63.89v-9.49h1.59l.16,2.21h.06a5.4,5.4,0,0,1,1.79-1.8,4.43,4.43,0,0,1,2.34-.64,5.83,5.83,0,0,1,1,.08,3.91,3.91,0,0,1,.87.3Zm23.56.6a3.36,3.36,0,0,1-1,1.26,4.25,4.25,0,0,1-1.51.73,6.77,6.77,0,0,1-1.9.25H88.26v4.85H86.32V170.13h4.1a8.8,8.8,0,0,1,1.92.19,4.14,4.14,0,0,1,1.51.65,3,3,0,0,1,1,1.19,4,4,0,0,1,.35,1.79A4.22,4.22,0,0,1,94.83,175.75Zm11.4,7.09h-1.57l-.15-1.22h-.06a9.42,9.42,0,0,1-1.7,1,4.42,4.42,0,0,1-1.93.44,4,4,0,0,1-1.27-.19,3,3,0,0,1-1-.56,2.45,2.45,0,0,1-.67-.86,2.6,2.6,0,0,1-.24-1.13,2.48,2.48,0,0,1,.38-1.39,3,3,0,0,1,1.18-1,7.88,7.88,0,0,1,2.08-.7,23.11,23.11,0,0,1,3-.41,2.37,2.37,0,0,0-.57-1.49,2.28,2.28,0,0,0-1.8-.62,4.5,4.5,0,0,0-1.69.33,12,12,0,0,0-1.53.73L98,174.46a10,10,0,0,1,.88-.48,9,9,0,0,1,1-.44,8.71,8.71,0,0,1,1.14-.31,6.12,6.12,0,0,1,1.21-.11,3.86,3.86,0,0,1,3,1.06,4.19,4.19,0,0,1,1,2.95Zm11.78,0h-1.92v-5.63a3,3,0,0,0-.45-1.83,1.77,1.77,0,0,0-1.53-.6,2.53,2.53,0,0,0-1.36.38,8.15,8.15,0,0,0-1.34,1.14v6.54h-1.92v-9.49h1.57l.16,1.53h.08a8,8,0,0,1,1.55-1.25,3.65,3.65,0,0,1,1.94-.51,2.93,2.93,0,0,1,2.45,1A4.58,4.58,0,0,1,118,177Zm12,2.23a3.6,3.6,0,0,1-1.07,1.06,6.1,6.1,0,0,1-1.69.72,8.9,8.9,0,0,1-2.22.26,6.61,6.61,0,0,1-3.18-.65,2.08,2.08,0,0,1-1.16-1.91,1.78,1.78,0,0,1,.4-1.1,3.52,3.52,0,0,1,1.13-1v-.08a2.23,2.23,0,0,1-.68-.59,1.58,1.58,0,0,1-.29-1,1.76,1.76,0,0,1,.3-.94,2.86,2.86,0,0,1,.85-.85V179a3.15,3.15,0,0,1-.86-1,3,3,0,0,1-.35-1.47,3.33,3.33,0,0,1,.31-1.43,3.38,3.38,0,0,1,.84-1.07,3.51,3.51,0,0,1,1.21-.68,4.44,4.44,0,0,1,1.47-.23,4,4,0,0,1,1.43.23h3.9v1.45H128a3.48,3.48,0,0,1,.53.77,2.28,2.28,0,0,1,.23,1,3.18,3.18,0,0,1-.29,1.38,3,3,0,0,1-.8,1,3.7,3.7,0,0,1-1.18.63,4.89,4.89,0,0,1-1.45.21,4,4,0,0,1-.75-.08,4.45,4.45,0,0,1-.79-.23,1.19,1.19,0,0,0-.66,1,.79.79,0,0,0,.49.76,3.39,3.39,0,0,0,1.39.23h2a5.68,5.68,0,0,1,2.77.53,1.89,1.89,0,0,1,.9,1.76A2.39,2.39,0,0,1,130.05,185.07Zm11.47-6.92a3.4,3.4,0,0,1-.07.44h-7.14a3,3,0,0,0,1,2.18,3.56,3.56,0,0,0,2.38.79,4.48,4.48,0,0,0,1.44-.22,5.71,5.71,0,0,0,1.31-.6l.68,1.22a7.73,7.73,0,0,1-1.66.79,6.22,6.22,0,0,1-2,.32,5.72,5.72,0,0,1-2-.34,4.75,4.75,0,0,1-1.64-1,4.6,4.6,0,0,1-1.1-1.56,5.57,5.57,0,0,1,0-4.17,4.65,4.65,0,0,1,1.09-1.57,4.46,4.46,0,0,1,1.55-1,4.84,4.84,0,0,1,1.8-.34,4.9,4.9,0,0,1,1.86.33,3.81,3.81,0,0,1,1.36.92,3.88,3.88,0,0,1,.86,1.41,5.56,5.56,0,0,1,.29,1.82A4.8,4.8,0,0,1,141.52,178.15Zm11.28,4.69h-1.57l-.15-1.22H151a9.42,9.42,0,0,1-1.7,1,4.42,4.42,0,0,1-1.93.44,4,4,0,0,1-1.27-.19,3,3,0,0,1-1-.56,2.57,2.57,0,0,1-.67-.86,2.6,2.6,0,0,1-.24-1.13,2.48,2.48,0,0,1,.38-1.39,3,3,0,0,1,1.18-1,7.88,7.88,0,0,1,2.08-.7,23.11,23.11,0,0,1,3-.41,2.31,2.31,0,0,0-.57-1.49,2.27,2.27,0,0,0-1.79-.62,4.51,4.51,0,0,0-1.7.33,12,12,0,0,0-1.53.73l-.71-1.29a9.72,9.72,0,0,1,.87-.48,9,9,0,0,1,1-.44,8.71,8.71,0,0,1,1.14-.31,6.15,6.15,0,0,1,1.22-.11,3.84,3.84,0,0,1,3,1.06,4.19,4.19,0,0,1,1,2.95Zm12,2.83h-9.31V184.1h9.31Z"/><path class="cls-1" d="M147.07,178.79a2.11,2.11,0,0,0-.79.63,1.42,1.42,0,0,0-.23.78,1.1,1.1,0,0,0,.55,1,2.78,2.78,0,0,0,1.33.31,3.58,3.58,0,0,0,1.49-.33,6.83,6.83,0,0,0,1.46-.93V178a18.66,18.66,0,0,0-2.33.3A5.64,5.64,0,0,0,147.07,178.79Z"/></svg>